<mxfile host="app.diagrams.net" modified="2023-03-24T14:48:31.364Z" agent="Mozilla/5.0 (X11; Linux x86_64) AppleWebKit/537.36 (KHTML, like Gecko) Chrome/111.0.0.0 Safari/537.36" version="21.1.1" etag="F0hD_Grvvl3Eb9LiVfRY" type="github">
  <diagram name="PÃ¡gina-1" id="NxQv1sxKOMNu2wI81o3b">
    <mxGraphModel>
      <root>
        <mxCell id="0" />
        <mxCell id="1" parent="0" />
      </root>
    </mxGraphModel>
  </diagram>
</mxfile>
